<?xml version="1.0" encoding="utf-8"?>
<!-- Generator: Adobe Illustrator 25.2.3, SVG Export Plug-In . SVG Version: 6.00 Build 0)  -->
<svg version="1.1" id="Layer_1" xmlns="http://www.w3.org/2000/svg" xmlns:xlink="http://www.w3.org/1999/xlink" x="0px" y="0px"
	 viewBox="0 0 153.3 21.6" style="enable-background:new 0 0 153.3 21.6;" xml:space="preserve">
<style type="text/css">
	.st0{fill:#0046A4;}
	.st1{fill:#0066FF;}
</style>
<g id="Layer_2_1_">
	<g id="logo">
		<path class="st0" d="M50.3,3.6v1.8c0.5-1.2,1.8-1.9,3.1-1.8c0.4,0,0.8,0,1.2,0.1c0.3,0.1,0.6,0.2,0.9,0.4l-1,2.6
			c-0.2-0.1-0.4-0.3-0.7-0.3c-0.3-0.1-0.6-0.1-1-0.1c-0.7,0-1.4,0.2-1.8,0.7c-0.5,0.6-0.7,1.4-0.6,2.2v6.4h-2.8v-12
			C47.6,3.6,50.3,3.6,50.3,3.6z"/>
		<path class="st0" d="M72.9,15.4c-0.7-0.3-1.4-0.8-2-1.3c-1.8-1.8-2.3-4.5-1.3-6.9c0.3-0.7,0.8-1.4,1.3-2c0.6-0.6,1.2-1,2-1.3
			s1.6-0.5,2.5-0.5c0.6,0,1.3,0.1,1.9,0.3s1.1,0.4,1.6,0.8c0.5,0.3,0.9,0.7,1.3,1.2s0.7,1,0.9,1.5l-2.5,1c-0.3-0.6-0.7-1.2-1.3-1.6
			C76.7,6.2,76,6,75.3,6c-0.5,0-1,0.1-1.4,0.3c-0.4,0.2-0.8,0.5-1.1,0.8c-0.3,0.3-0.6,0.7-0.7,1.2c-0.2,0.5-0.3,0.9-0.3,1.4
			s0.1,1,0.3,1.4c0.2,0.4,0.4,0.8,0.7,1.2c0.3,0.3,0.7,0.6,1.1,0.8s0.9,0.3,1.4,0.3c0.7,0,1.4-0.2,2-0.6c0.6-0.4,1-1,1.2-1.6
			l2.5,1.1c-0.2,0.5-0.5,1.1-0.9,1.5c-0.7,0.9-1.8,1.6-2.9,2c-0.6,0.2-1.3,0.3-1.9,0.3C74.5,15.9,73.7,15.7,72.9,15.4z"/>
		<path class="st0" d="M84.9,0.5v4.6c0.4-0.5,0.9-0.9,1.5-1.2C88.3,3,90.5,3.4,92,4.7c0.9,1,1.3,2.4,1.3,3.8v7.1h-2.8V8.8
			c0-0.8-0.2-1.6-0.7-2.2s-1.3-0.9-2-0.8c-0.4,0-0.7,0.1-1.1,0.2c-0.3,0.1-0.6,0.4-0.9,0.6c-0.3,0.3-0.5,0.6-0.6,1S85,8.5,85,9v6.6
			h-2.8V0.5H84.9z"/>
		<path class="st0" d="M98.3,15.5c-0.7-0.3-1.3-0.7-1.9-1.2c-0.6-0.6-1-1.2-1.4-2s-0.5-1.7-0.5-2.6S94.7,7.9,95,7
			c0.3-0.7,0.8-1.4,1.3-2c0.5-0.5,1.2-0.9,1.9-1.2c0.7-0.3,1.5-0.4,2.2-0.4c0.8,0,1.5,0.1,2.2,0.5c0.6,0.3,1.2,0.7,1.7,1.2V3.6h2.8
			v12h-2.8V14c-0.4,0.6-1,1-1.7,1.3s-1.5,0.5-2.2,0.5C99.7,15.9,99,15.7,98.3,15.5z M102.3,13.1c0.4-0.2,0.8-0.5,1.1-0.8
			c0.3-0.3,0.6-0.8,0.7-1.2c0.2-0.5,0.3-1,0.3-1.5s-0.1-1-0.3-1.4c-0.2-0.4-0.4-0.8-0.7-1.2c-0.3-0.3-0.7-0.6-1.1-0.8
			c-0.9-0.4-1.9-0.4-2.9,0C99,6.4,98.7,6.7,98.3,7c-0.3,0.3-0.6,0.7-0.8,1.2c-0.2,0.5-0.3,1-0.3,1.5s0.1,1,0.3,1.5
			c0.3,0.9,1,1.6,1.9,2C100.4,13.4,101.4,13.4,102.3,13.1L102.3,13.1z"/>
		<path class="st0" d="M111.4,3.6v1.8c0.5-1.2,1.8-1.9,3.1-1.8c0.4,0,0.8,0,1.2,0.1c0.3,0.1,0.6,0.2,0.9,0.4l-1,2.6
			c-0.2-0.1-0.4-0.3-0.7-0.3c-0.3-0.1-0.6-0.1-1-0.1c-0.7,0-1.4,0.2-1.8,0.7c-0.5,0.6-0.7,1.4-0.6,2.2v6.4h-2.8v-12
			C108.7,3.6,111.4,3.6,111.4,3.6z"/>
		<path class="st0" d="M129.1,3.6h-2.8v1.5c-0.5-0.6-1-1-1.7-1.3s-1.4-0.5-2.2-0.5c-0.8,0-1.5,0.2-2.2,0.4c-0.7,0.3-1.4,0.7-1.9,1.2
			c-0.6,0.6-1,1.2-1.3,2s-0.5,1.7-0.5,2.7c0,0.9,0.2,1.8,0.5,2.6c0.3,0.7,0.8,1.4,1.4,2c0.6,0.5,1.2,0.9,1.9,1.2
			c0.7,0.3,1.4,0.4,2.1,0.4c0.8,0,1.5-0.2,2.2-0.5s1.2-0.8,1.7-1.4l0,0c0,4.4-1.6,5-4.8,5.1c0,0.8,0,1.9,0,2.5c0.8,0,1.4,0,2.3,0
			c3-0.1,5.2-3.3,5.1-6L129.1,3.6z M126.2,11.1c-0.2,0.4-0.4,0.8-0.7,1.2c-0.3,0.3-0.7,0.6-1.1,0.8c-0.9,0.4-1.9,0.4-2.9,0
			c-0.9-0.4-1.6-1.1-1.9-2c-0.2-0.5-0.3-1-0.3-1.5s0.1-1,0.3-1.5c0.2-0.4,0.4-0.8,0.8-1.2c0.3-0.3,0.7-0.6,1.2-0.8
			c0.9-0.4,1.9-0.4,2.9,0c0.4,0.2,0.8,0.5,1.1,0.8c0.3,0.3,0.6,0.7,0.7,1.2c0.2,0.5,0.3,0.9,0.3,1.4
			C126.5,10.1,126.4,10.6,126.2,11.1z"/>
		<path class="st0" d="M136.8,15.9c-0.9,0-1.8-0.2-2.6-0.5c-1.5-0.6-2.7-1.8-3.3-3.3c-0.3-0.8-0.5-1.6-0.5-2.4s0.2-1.7,0.5-2.5
			c0.3-0.7,0.8-1.4,1.3-2c0.6-0.6,1.2-1,2-1.3s1.6-0.5,2.5-0.5c0.8,0,1.7,0.1,2.5,0.5c0.7,0.3,1.4,0.7,2,1.3s1,1.2,1.3,2
			s0.5,1.6,0.5,2.5v1h-9.8c0.2,0.8,0.6,1.5,1.3,2.1c0.7,0.5,1.6,0.8,2.4,0.8h1.1V16L136.8,15.9z M134.6,6.5
			c-0.6,0.4-1.1,1.1-1.3,1.8h6.8c-0.2-0.7-0.6-1.4-1.2-1.8c-0.6-0.4-1.4-0.7-2.2-0.6C136,5.8,135.2,6.1,134.6,6.5z"/>
		<path class="st0" d="M59.3,15.3c-1.5-0.6-2.7-1.8-3.3-3.3c-0.3-0.8-0.5-1.6-0.5-2.4c0-0.8,0.2-1.7,0.5-2.4s0.7-1.4,1.3-2
			s1.2-1,2-1.3s1.6-0.5,2.4-0.5c0.8,0,1.7,0.1,2.5,0.5c0.7,0.3,1.4,0.7,1.9,1.3s1,1.2,1.3,1.9c0.3,0.8,0.5,1.6,0.5,2.4v1h-9.7
			c0.2,0.8,0.6,1.5,1.2,2c0.7,0.5,1.5,0.8,2.4,0.8c1.4,0,2.7-0.8,3.3-2.1l2.3,1.3c-1.1,2.1-3.2,3.3-5.6,3.2
			C61,15.8,60.1,15.6,59.3,15.3z M59.6,6.5c-0.6,0.4-1,1.1-1.3,1.8h6.8c-0.2-0.7-0.6-1.4-1.2-1.8c-0.6-0.4-1.4-0.6-2.2-0.6
			C61,5.8,60.3,6,59.6,6.5L59.6,6.5z"/>
		<path class="st0" d="M140.8,13.8c0.2-0.2,0.6-0.4,0.9-0.3c0.3,0,0.7,0.1,0.9,0.3s0.3,0.6,0.3,0.9c0,0.6-0.4,1.2-1.1,1.2
			c-0.1,0-0.1,0-0.2,0c-0.3,0-0.7-0.1-0.9-0.3C140.4,15,140.4,14.3,140.8,13.8L140.8,13.8z"/>
		<path class="st0" d="M145.9,9.6L145.9,9.6c0-0.4,0-0.8,0.1-1.1s0.2-0.5,0.4-0.7s0.5-0.3,0.8-0.4c0.4-0.1,0.8-0.1,1.2-0.1h0.1v1.3
			c-0.2,0-0.4,0-0.7,0.1c-0.1,0-0.3,0.1-0.4,0.2c-0.1,0.1-0.1,0.2-0.2,0.3c0,0.2,0,0.4,0,0.5h1.2v1.2h-1.2v4.8h-1.4v-4.8h-1V9.6
			H145.9z"/>
		<path class="st0" d="M150.7,9.6v0.9c0.3-0.6,0.9-0.9,1.5-0.9c0.2,0,0.4,0,0.6,0.1c0.2,0,0.3,0.1,0.5,0.2l-0.5,1.3
			c-0.1-0.1-0.2-0.1-0.3-0.2c-0.2,0-0.3-0.1-0.5-0.1c-0.3,0-0.7,0.1-0.9,0.3c-0.2,0.3-0.3,0.7-0.3,1.1v3.2h-1.4v-6L150.7,9.6z"/>
	</g>
</g>
<path class="st1" d="M18.4,21.1C12.7,21.1,8,16.5,8,10.7S12.7,0.3,18.4,0.3V21.1z"/>
<circle class="st1" cx="31.4" cy="10.7" r="10.4"/>
<path class="st1" d="M5.4,19.7v-18c-5,2.9-6.7,9.2-3.8,14.2C2.5,17.5,3.8,18.8,5.4,19.7z"/>
</svg>
